<svg id="Layer_1" data-name="Layer 1" xmlns="http://www.w3.org/2000/svg" viewBox="0 0 270.36 121.93"><defs><style>.cls-1{fill:#fff;}</style></defs><title>Logo-white</title><path class="cls-1" d="M314.23,359.19a5.36,5.36,0,0,1-2.67-.8l0.08-1.41a4.47,4.47,0,0,0,2.67,1,1.53,1.53,0,0,0,1.75-1.55c0-1.87-4.13-2-4.13-4.52a2.81,2.81,0,0,1,3-2.76,3.76,3.76,0,0,1,2.21.71L316.71,351a3.18,3.18,0,0,0-1.83-.68,1.44,1.44,0,0,0-1.62,1.4c0,1.74,4.13,1.79,4.13,4.51A2.91,2.91,0,0,1,314.23,359.19Z" transform="translate(-285.54 -237.26)"/><path class="cls-1" d="M327.39,352c0.53-1.14.88-1.94,1.18-2.73l0.35-.1,3.25,7c0.4,0.86.91,2,1.33,2.77l-1.47.11-1.28-2.84h-4l-0.05.13c-0.35.83-.73,1.78-1.06,2.59h-1.47Zm-0.15,3.14h3l-1.52-3.42Z" transform="translate(-285.54 -237.26)"/><path class="cls-1" d="M346.53,359c-0.81-.05-1.82-0.07-2.78-0.07s-2,0-2.77.07c0.07-.65.09-2.44,0.09-3.32v-3c0-.87,0-2.62-0.09-3.27a12.13,12.13,0,0,0,1.46-.07c0,0.39,0,1.48,0,2V357c0,0.22,0,.57,0,0.84h1.22c1.1,0,2,0,3,0A11.13,11.13,0,0,0,346.53,359Z" transform="translate(-285.54 -237.26)"/><path class="cls-1" d="M353.34,354.42a4.94,4.94,0,0,1,4.9-5.25,4.62,4.62,0,0,1,4.64,4.77,5,5,0,0,1-4.9,5.25A4.62,4.62,0,0,1,353.34,354.42Zm8.17-.25c0-2.4-1.45-3.88-3.38-3.88a3.61,3.61,0,0,0-3.42,3.88c0,2.41,1.45,3.88,3.38,3.88A3.61,3.61,0,0,0,361.51,354.18Zm-1.07-7.86-2.19,2-0.86.07,1.26-2Z" transform="translate(-285.54 -237.26)"/><path class="cls-1" d="M371,355.67l0.05-3.26c0-.87,0-2.5-0.05-3.15l0.35-.1,6.27,7.26v-3.76c0-.87,0-2.62-0.11-3.27a13.14,13.14,0,0,0,1.51-.07c-0.05.39-.1,1.48-0.11,2l-0.1,5.73c0,0.53,0,1.63,0,2l-0.35.09L372.3,352v5c0,0.53,0,1.58.05,2h-1.49C370.94,358.29,371,356.56,371,355.67Z" transform="translate(-285.54 -237.26)"/><path class="cls-1" d="M399.49,358.94h-2.88c0.07-.65.09-2.39,0.09-3.27v-3c0-.87,0-2.62-0.09-3.27,0.49,0,1.36-.07,2.65-0.07,3.38,0,5.16,2.09,5.16,4.55A4.77,4.77,0,0,1,399.49,358.94Zm-0.26-8.46c-0.43,0-.81,0-1.18,0,0,0.24,0,.62,0,0.84V357c0,0.23,0,.49,0,0.76a11,11,0,0,0,1.22.07,3.42,3.42,0,0,0,3.77-3.73C403,351.91,401.7,350.49,399.23,350.49Z" transform="translate(-285.54 -237.26)"/><path class="cls-1" d="M418.08,359c-0.81-.05-1.82-0.07-2.78-0.07s-2,0-2.77.07c0.07-.65.09-2.44,0.09-3.32v-3c0-.87,0-2.7-0.09-3.35,0.79,0,1.71.07,2.67,0.07s1.89,0,2.7-.07a8.06,8.06,0,0,0-.11,1.18l-2.59,0H414c0,0.26,0,.62,0,0.83v2l3.31,0c0,0.33,0,.77,0,1.17l-3.27,0V357c0,0.2,0,.58,0,0.84h1.23c1.1,0,2.05,0,3,0A10.85,10.85,0,0,0,418.08,359Z" transform="translate(-285.54 -237.26)"/><path class="cls-1" d="M440.44,359c-0.81-.05-1.82-0.07-2.78-0.07s-2,0-2.77.07c0.07-.65.09-2.44,0.09-3.32v-3c0-.87,0-2.7-0.09-3.35,0.79,0,1.71.07,2.67,0.07s1.89,0,2.7-.07a7.8,7.8,0,0,0-.11,1.18l-2.59,0h-1.24c0,0.26,0,.62,0,0.83v2l3.31,0c0,0.33,0,.77,0,1.17l-3.27,0V357c0,0.2,0,.58,0,0.84h1.24c1.1,0,2.05,0,3,0A11.35,11.35,0,0,0,440.44,359Z" transform="translate(-285.54 -237.26)"/><path class="cls-1" d="M448.52,349.32l3,7.18,1.83-4.5c0.33-.81.69-1.76,1-2.59h1.5l-3,7a28,28,0,0,0-1.1,2.73l-0.35.09-3-7c-0.37-.87-0.87-2-1.26-2.77Z" transform="translate(-285.54 -237.26)"/><path class="cls-1" d="M468.84,359c-0.81-.05-1.82-0.07-2.78-0.07s-2,0-2.77.07c0.07-.65.09-2.44,0.09-3.32v-3c0-.87,0-2.7-0.09-3.35,0.79,0,1.71.07,2.67,0.07s1.89,0,2.7-.07a8.49,8.49,0,0,0-.11,1.18l-2.59,0h-1.24c0,0.26,0,.62,0,0.83v2l3.31,0c0,0.33,0,.77,0,1.17l-3.27,0V357c0,0.2,0,.58,0,0.84H466c1.1,0,2,0,3,0A11.38,11.38,0,0,0,468.84,359Z" transform="translate(-285.54 -237.26)"/><path class="cls-1" d="M476.75,355.67l0.05-3.26c0-.87,0-2.5-0.05-3.15l0.36-.1,6.27,7.26v-3.76c0-.87,0-2.62-0.11-3.27a13.14,13.14,0,0,0,1.51-.07c-0.05.39-.09,1.48-0.11,2l-0.09,5.73c0,0.53,0,1.63,0,2l-0.35.09L478,352v5c0,0.53,0,1.58.05,2h-1.49C476.67,358.29,476.73,356.56,476.75,355.67Z" transform="translate(-285.54 -237.26)"/><path class="cls-1" d="M500.23,350.53c-1,0-2,0-3.18,0,0,0.3,0,.65,0,0.88V357c0,0.52,0,1.58,0,2h-1.47c0.07-.65.1-2.39,0.1-3.27v-2.95c0-.57,0-1.47,0-2.23-1.22,0-2.19,0-3.22,0a10.93,10.93,0,0,0,.05-1.21c1.22,0,2.39.07,3.86,0.07s2.72,0,4-.07A8.45,8.45,0,0,0,500.23,350.53Z" transform="translate(-285.54 -237.26)"/><path class="cls-1" d="M507.11,354.42a4.94,4.94,0,0,1,4.9-5.25,4.62,4.62,0,0,1,4.64,4.77,5,5,0,0,1-4.9,5.25A4.62,4.62,0,0,1,507.11,354.42Zm8.17-.25c0-2.4-1.45-3.88-3.38-3.88a3.61,3.61,0,0,0-3.42,3.88c0,2.41,1.45,3.88,3.38,3.88A3.61,3.61,0,0,0,515.28,354.18Z" transform="translate(-285.54 -237.26)"/><path class="cls-1" d="M526.73,359.19a5.36,5.36,0,0,1-2.67-.8l0.08-1.41a4.47,4.47,0,0,0,2.67,1,1.53,1.53,0,0,0,1.75-1.55c0-1.87-4.13-2-4.13-4.52a2.81,2.81,0,0,1,3-2.76,3.75,3.75,0,0,1,2.21.71L529.22,351a3.18,3.18,0,0,0-1.83-.68,1.44,1.44,0,0,0-1.62,1.4c0,1.74,4.13,1.79,4.13,4.51A2.91,2.91,0,0,1,526.73,359.19Z" transform="translate(-285.54 -237.26)"/><path class="cls-1" d="M286.52,321.45l0.75-5.39c0.22-1.58.58-4.78,0.68-6.07l0.63-.17c0.46,1.09,1.19,2.65,1.65,3.62l4.64,10,4.64-10c0.44-.95,1.29-2.79,1.63-3.62h0.58c0.14,1.38.58,4.68,0.78,6.21l0.75,5.41c0.22,1.58.73,4.59,1,5.85l-2.5.19c0-.7-0.24-2.72-0.41-3.69l-1-7.45c-0.85,1.8-4.83,10.17-5.24,11.19l-0.61.17c-0.41-1-4.2-9.2-5.17-11.34l-1,7.43c-0.12.95-.34,2.82-0.37,3.5h-2.43C285.84,326,286.3,323.06,286.52,321.45Z" transform="translate(-285.54 -237.26)"/><path class="cls-1" d="M327.64,314.88c0.95-2,1.58-3.47,2.11-4.88l0.63-.17,5.83,12.53c0.71,1.53,1.63,3.5,2.38,5l-2.62.19-2.28-5.07H326.5l-0.1.24c-0.63,1.48-1.31,3.18-1.89,4.64h-2.62Zm-0.27,5.61h5.44l-2.72-6.12Z" transform="translate(-285.54 -237.26)"/><path class="cls-1" d="M366.94,327.47l-4.39-6.89h-2.7v3.23c0,0.92,0,2.82.07,3.5H357.3c0.12-1.17.17-4.27,0.17-5.85v-5.37c0-1.55,0-4.69-.17-5.85,0.87,0,3.35-.1,4.47-0.12,4.25-.07,6.6,2.28,6.53,5-0.07,2.35-1.29,3.93-3.59,5l2.5,3.67c0.66,0.92,2,2.79,2.55,3.47Zm-4.54-8.88a3.19,3.19,0,0,0,3.45-3.21c0-2.09-1.29-3.21-3.84-3.21-0.8,0-1.51,0-2.16.07v6.34h2.55Z" transform="translate(-285.54 -237.26)"/><path class="cls-1" d="M396.32,327.74a8.65,8.65,0,0,1-8.79-8.74,9.08,9.08,0,0,1,9.25-9.18,10.91,10.91,0,0,1,5.39,1.53l-0.68,2.18a8.69,8.69,0,0,0-5-1.55c-3.93,0-6.55,2.89-6.55,6.82a6.4,6.4,0,0,0,6.6,6.8,7.07,7.07,0,0,0,3.45-.78v-3c0-.36,0-1,0-1.46-0.73,0-.54,0-1.29,0-1.21,0-1.92,0-3.3.07a16.2,16.2,0,0,0,0-2.18c1.48,0,2.21.07,3.3,0.07,1.7,0,2.4,0,3.84-.1-0.12.95-.17,4.32-0.17,5.88v1.89A10.14,10.14,0,0,1,396.32,327.74Z" transform="translate(-285.54 -237.26)"/><path class="cls-1" d="M426.17,314.88c0.95-2,1.58-3.47,2.11-4.88l0.63-.17,5.83,12.53c0.7,1.53,1.63,3.5,2.38,5l-2.62.19-2.28-5.07H425l-0.1.24c-0.63,1.48-1.31,3.18-1.89,4.64h-2.62Zm-0.27,5.61h5.44l-2.72-6.12Z" transform="translate(-285.54 -237.26)"/><path class="cls-1" d="M465.48,327.47l-4.39-6.89h-2.69v3.23c0,0.92,0,2.82.07,3.5h-2.62c0.12-1.17.17-4.27,0.17-5.85v-5.37c0-1.55,0-4.69-.17-5.85,0.88,0,3.35-.1,4.47-0.12,4.25-.07,6.6,2.28,6.53,5-0.07,2.35-1.29,3.93-3.59,5l2.5,3.67c0.65,0.92,2,2.79,2.55,3.47Zm-4.54-8.88a3.19,3.19,0,0,0,3.45-3.21c0-2.09-1.29-3.21-3.84-3.21-0.8,0-1.51,0-2.16.07v6.34h2.55Z" transform="translate(-285.54 -237.26)"/><path class="cls-1" d="M487.49,327.3c0.12-1.17.17-4.27,0.17-5.85v-5.37c0-1.55,0-4.69-.17-5.85a22,22,0,0,0,2.62-.12c0,0.7-.07,2.65-0.07,3.59v10.1c0,0.92,0,2.82.07,3.5h-2.62Z" transform="translate(-285.54 -237.26)"/><path class="cls-1" d="M523.52,312.25c-1.87,0-3.5,0-5.68,0,0,0.53,0,1.16,0,1.58v10c0,0.92,0,2.82.07,3.5h-2.62c0.12-1.17.17-4.27,0.17-5.85v-5.27c0-1,0-2.62,0-4-2.19,0-3.91,0-5.75,0a19.74,19.74,0,0,0,.1-2.16c2.19,0.07,4.27.12,6.89,0.12s4.86,0,7.09-.12A15.17,15.17,0,0,0,523.52,312.25Z" transform="translate(-285.54 -237.26)"/><path class="cls-1" d="M545,314.88c0.95-2,1.58-3.47,2.11-4.88l0.63-.17,5.83,12.53c0.7,1.53,1.63,3.5,2.38,5l-2.62.19L551,322.43h-7.19l-0.1.24c-0.63,1.48-1.31,3.18-1.89,4.64H539.2Zm-0.27,5.61h5.44l-2.72-6.12Z" transform="translate(-285.54 -237.26)"/><g id="M_-_2" data-name="M - 2"><path class="cls-1" d="M449.47,293.78a4.73,4.73,0,0,1-1.39-1.27v0h0v0a4.7,4.7,0,0,1-1,1.57,3.66,3.66,0,0,0,1.72,3.9h0A3.66,3.66,0,0,0,449.47,293.78Zm-0.88,2.94a2,2,0,0,1-.42-1.35,1.75,1.75,0,0,1,.14-1.34,2,2,0,0,1,.43,1.35A1.71,1.71,0,0,1,448.59,296.72Z" transform="translate(-285.54 -237.26)"/><path class="cls-1" d="M450.53,289.09l-0.06-.32c-0.74-3.9-2.12-12.41-2.75-17l-2.45-18.14c-0.43-3.09-1.8-13.68-2.09-16.41h-1.44c-1,2.74-3.31,7.85-4.75,11.08l-14.25,32.1L408.5,248.2c-1.51-3.46-3.24-7.13-4.75-10.94l-1.51.36c-0.36,3.89-1.3,11.66-2,16.77l-2.45,17.78c-0.62,4.83-1.71,12-2.56,16.37l-0.06.3a4.87,4.87,0,0,1-1.51,2.44,4,4,0,0,1-2.26.51,2.56,2.56,0,0,1-2.39-1.87,1.48,1.48,0,0,1,.56-1.71,1.12,1.12,0,0,0-.06.27,1.32,1.32,0,1,0,1.54-1.08l-0.06,0h-0.34c-2.6.16-2.74,3.73-.41,4.71a3.76,3.76,0,0,0,3.83-.6,2.82,2.82,0,0,0,.54.13c1.93,0.24,2.57-1,2.82-2.53h0l6.11-44.42,0.57-.08,18.54,40.48,18.43-40.14,0.57,0.08,6.44,44.28h0c0.33,1.91,1.59,3.58,3.92,3.29a4,4,0,0,0,1.14-.36S450.88,291.08,450.53,289.09Z" transform="translate(-285.54 -237.26)"/><path class="cls-1" d="M397.43,292.46a3.32,3.32,0,0,0-1.67,2.41,1.67,1.67,0,1,0,2.9.25A3.32,3.32,0,0,0,397.43,292.46Zm0,2.64a2.91,2.91,0,0,1-.34,1.49,5.6,5.6,0,0,1,.26-3A2.91,2.91,0,0,1,397.41,295.09Z" transform="translate(-285.54 -237.26)"/><path class="cls-1" d="M447.21,289.79h0l0-.19s0-.1,0-0.15h0L441,247l-18.1,39.43h-0.54l-18.21-39.75L398.33,289l-0.09.67c-0.07,1.55.38,2.88,2.3,3.12a2.94,2.94,0,0,0,.54,0,3.55,3.55,0,0,0,3.14,1.35c2.31-.24,3.61-3.5,1.22-4.46a1.38,1.38,0,0,0-.29-0.11,1.19,1.19,0,1,0,1,1.45l0-.09a1.56,1.56,0,0,1,.07,1.44c-0.54,1.32-2.08,1.41-3.26,1a3.31,3.31,0,0,1-1.58-1.09,5,5,0,0,1-.61-2.72h0c0.14-2.35.78-7.2,1.14-10.19l3.49-26.45L422,290.55l1.43-.36c0.71-1.92,13.4-30.29,16.54-37.35L443.41,279c0.57,3.85,1.07,8.7,1.28,11,0.24,1.9-1.55,3.71-1.55,3.71a3.86,3.86,0,0,0,1.17.06C446.58,293.47,447.34,291.66,447.21,289.79Z" transform="translate(-285.54 -237.26)"/></g></svg>